# AST/ASF file generated using VICON BodyLanguage
# -----------------------------------------------
:version 1.10
:name VICON
:units
  mass 1.0
  length 0.45
  angle deg
:documentation
   .ast/.asf automatically generated from VICON data using
   VICON BodyBuilder and BodyLanguage model FoxedUp or BRILLIANT.MOD
:root
   order TX TY TZ RX RY RZ
   axis XYZ
   position 0 0 0  
   orientation 0 0 0 
:bonedata
  begin
     id 1 
     name lhipjoint
     direction 0.78388 -0.462562 0.414208 
     length 3.01181 
     axis 0 0 0  XYZ
  end
  begin
     id 2 
     name lfemur
     direction 0.34202 -0.939693 0  
     length 6.04673  
     axis 0 0 20  XYZ
    dof rx ry rz
    limits (-160.0 20.0)
           (-70.0 70.0)
           (-60.0 70.0)
  end
  begin
     id 3 
     name ltibia
     direction 0.34202 -0.939693 0   
     length 7.211   
     axis 0 0 20   XYZ
    dof rx
    limits (-10.0 170.0)
  end
  begin
     id 4 
     name lfoot
     direction 0.121887 -0.334882 0.934344   
     length 2.13567   
     axis -90 7.62852e-016 20   XYZ
    dof rx rz
    limits (-45.0 90.0)
           (-70.0 20.0)
  end
  begin
     id 5 
     name ltoes
     direction 1.53555e-011 -4.2179e-011 1   
     length 1.05957   
     axis -90 7.62852e-016 20   XYZ
    dof rx
    limits (-90.0 20.0)
  end
  begin
     id 6 
     name rhipjoint
     direction -0.769387 -0.475875 0.426129   
     length 2.92756  
     axis 0 0 0  XYZ 
  end
  begin
     id 7 
     name rfemur
     direction -0.34202 -0.939693 0   
     length 6.35468   
     axis 0 0 -20   XYZ
    dof rx ry rz
    limits (-160.0 20.0)
           (-70.0 70.0)
           (-70.0 60.0)
  end
  begin
     id 8 
     name rtibia
     direction -0.34202 -0.939693 0   
     length 7.37886   
     axis 0 0 -20   XYZ
    dof rx
    limits (-10.0 170.0)
 end
 begin
     id 9 
     name rfoot
     direction -0.101763 -0.279592 0.954711   
     length 2.21478  
     axis -90 -7.62852e-016 -20   XYZ
    dof rx rz
    limits (-45.0 90.0)
           (-20.0 70.0)
  end
  begin
     id 10 
     name rtoes
     direction -1.53494e-011 -4.21851e-011 1   
     length 1.10506   
     axis -90 -7.62852e-016 -20   XYZ
    dof rx
    limits (-90.0 20.0)
  end
  begin
     id 11 
     name lowerback
     direction 0.00747405 0.999267 0.0375481   
     length 2.13259   
     axis 0 0 0   XYZ
    dof rx ry rz
    limits (-20.0 45.0)
           (-30.0 30.0)
           (-30.0 30.0)
  end
  begin
     id 12 
     name upperback
     direction 0.00661626 0.996177 0.0871029   
     length 2.10528   
     axis 0 0 0   XYZ
    dof rx ry rz
    limits (-20.0 45.0)
           (-30.0 30.0)
           (-30.0 30.0)
  end
  begin
     id 13 
     name thorax
     direction 0.00320659 0.997679 0.0680167   
     length 2.11338   
     axis 0 0 0   XYZ
    dof rx ry rz
    limits (-20.0 45.0)
           (-30.0 30.0)
           (-30.0 30.0)
  end
  begin
     id 14 
     name lowerneck
     direction 0.0374841 0.973033 0.227602   
     length 1.42765   
     axis 0 0 0   XYZ
    dof rx ry rz
    limits (-20.0 45.0)
           (-30.0 30.0)
           (-30.0 30.0)
  end
  begin
     id 15 
     name upperneck
     direction 0.00481585 0.989155 -0.146795   
     length 1.47593   
     axis 0 0 0   XYZ
    dof rx ry rz
    limits (-20.0 45.0)
           (-30.0 30.0)
           (-30.0 30.0)
  end
  begin
     id 16
     name head
     direction -0.00292522 0.997206 -0.0746423  
     length 1.48116  
     axis 0 0 0   XYZ
    dof rx ry rz
    limits (-20.0 45.0)
           (-30.0 30.0)
           (-30.0 30.0)
  end
  begin
     id 17 
     name lclavicle
     direction 0.951444 0.305606 0.0368784  
     length 3.01855  
     axis 0 0 0   XYZ
    dof ry rz
    limits (-20.0 10.0)
           (0.0 20.0)
  end
  begin
     id 18 
     name lhumerus
     direction 1 -4.48977e-011 2.61664e-027   
     length 5.52731   
     axis 180 -30 -90   XYZ
    dof rx ry rz
    limits (-60.0 90.0)
           (-90.0 90.0)
           (-90.0 90.0)
  end
  begin
     id 19
     name lradius
     direction 1 -4.48944e-011 8.22157e-027   
     length 3.11059   
     axis 180 -30 -90   XYZ
    dof rx
    limits (-10.0 170.0)
  end
  begin
     id 20
     name lwrist
     direction 1 -4.48976e-011 1.5779e-026   
     length 1.5553   
     axis -1.15221e-014 90 90   XYZ
    dof ry
    limits (-180.0 0.0)
 end
  begin
     id 21 
     name lhand
     direction 1 -4.49025e-011 3.1558e-026   
     length 0.419626   
     axis -2.01367e-014 90 90   XYZ
    dof rx rz
    limits (-90.0 90.0)
           (-45.0 45.0)
  end
  begin
     id 22 
     name lfingers
     direction 1 -4.4904e-011 6.31161e-026   
     length 0.338313   
     axis -4.02734e-014 90 90   XYZ
    dof rx
    limits (0.0 90.0)
  end
  begin
     id 23
     name lthumb
     direction 0.707107 -6.35004e-011 0.707107   
     length 0.485752   
     axis -90 45 2.85299e-015   XYZ
    dof rx rz
    limits (-45.0 45.0)
           (-45.0 45.0)
  end
  begin
     id 24 
     name rclavicle
     direction -0.968876 0.223791 0.105816   
     length 3.04177  
     axis 0 0 0   XYZ 
    dof ry rz
    limits (-10.0 20.0)
           (-20.0 0.0)
  end
  begin
     id 25 
     name rhumerus
     direction -1 -4.48962e-011 -1.01384e-027  
     length 5.25396   
     axis 180 30 90   XYZ
    dof rx ry rz
    limits (-90.0 60.0)
           (-90.0 90.0)
           (-90.0 90.0)
  end
  begin
     id 26 
     name rradius
     direction -1 -4.48955e-011 8.88542e-027   
     length 3.10567   
     axis 180 30 90   XYZ
    dof rx
    limits (-10.0 170.0)
  end
  begin
     id 27 
     name rwrist
     direction -1 -4.48994e-011 1.5779e-026   
     length 1.55283   
     axis -1.15221e-014 -90 -90   XYZ
    dof ry
    limits (-180.0 0.0)
  end
  begin
     id 28
     name rhand
     direction -1 -4.48891e-011 3.1558e-026   
     length 0.498676   
     axis -2.01367e-014 -90 -90   XYZ
    dof rx rz
    limits (-90.0 90.0)
           (-45.0 45.0)
  end
  begin
     id 29
     name rfingers
     direction -1 -4.48972e-011 6.31161e-026   
     length 0.402045   
     axis -4.02734e-014 -90 -90   XYZ
    dof rx
    limits (0.0 90.0)
  end
  begin
     id 30
     name rthumb
     direction -0.707107 -6.34849e-011 0.707107   
     length 0.577259   
     axis -90 -45 -2.85299e-015   XYZ
    dof rx rz
    limits (-45.0 45.0)
           (-45.0 45.0)
  end
:hierarchy
  begin
    root lhipjoint rhipjoint lowerback
    lhipjoint lfemur
    lfemur ltibia
    ltibia lfoot
    lfoot ltoes
    rhipjoint rfemur
    rfemur rtibia
    rtibia rfoot
    rfoot rtoes
    lowerback upperback
    upperback thorax
    thorax lowerneck lclavicle rclavicle
    lowerneck upperneck
    upperneck head
    lclavicle lhumerus
    lhumerus lradius
    lradius lwrist
    lwrist lhand lthumb
    lhand lfingers
    rclavicle rhumerus
    rhumerus rradius
    rradius rwrist
    rwrist rhand rthumb
    rhand rfingers
  end

#!OML:ASF H:\Pregnant\Project 1\Capture day 1\Session 1\femalepreg.ASF
:FULLY-SPECIFIED
:DEGREES
492
root 8.25476 19.4867 5.65467 -337.593 -42.7825 0.23252
lowerback -8.39663 3.50384 9.52086
upperback -8.01998 4.01413 6.49575
thorax -3.58593 1.62205 1.72997
lowerneck -20.2663 5.32973 7.94418
upperneck 40.8515 7.08464 -6.01803
head 19.9441 3.03893 -2.85366
rclavicle 3.74709e-014 6.99722e-014
rhumerus -39.1918 -10.067 -58.2584
rradius 37.76
rwrist -8.30811
rhand -15.1988 -17.5381
rfingers 7.12502
rthumb 10.973 -47.2313
lclavicle 3.74709e-014 6.99722e-014
lhumerus -45.8444 -7.23169 89.3951
lradius 33.7294
lwrist 41.1122
lhand -13.3422 1.35196
lfingers 7.12502
lthumb 12.7633 30.9418
rfemur -47.8455 6.80458 23.6529
rtibia 56.3826
rfoot -26.0227 -12.7471
rtoes 2.22424
lfemur -66.6937 1.22423 -23.5938
ltibia 73.8726
lfoot -0.0132996 8.79912
ltoes -33.0934
493
root 8.26654 19.4501 5.68484 -337.693 -43.664 0.44175
lowerback -8.09828 3.5897 9.5316
upperback -8.01652 4.16801 6.61165
thorax -3.75116 1.69326 1.8402
lowerneck -20.2315 5.41142 8.07284
upperneck 40.7188 7.31005 -6.36894
head 19.9115 3.09677 -2.99715
rclavicle 2.58917e-014 5.725e-014
rhumerus -39.0984 -10.0226 -58.0706
rradius 38.1599
rwrist -8.54552
rhand -15.2664 -17.7067
rfingers 7.12502
rthumb 10.9078 -47.4034
lclavicle 2.58917e-014 5.725e-014
lhumerus -46.2909 -7.50808 89.6466
lradius 33.8385
lwrist 41.0935
lhand -13.2258 1.30238
lfingers 7.12502
lthumb 12.8755 30.8852
rfemur -48.3861 7.15882 23.1952
rtibia 57.1808
rfoot -26.3478 -12.44
rtoes 2.2115
lfemur -66.951 1.17163 -23.1593
ltibia 73.4892
lfoot -0.0747213 8.83348
ltoes -33.0816
494
root 8.2785 19.4121 5.71637 -337.764 -44.5622 0.627704
lowerback -7.80771 3.68238 9.57151
upperback -8.01032 4.32797 6.72487
thorax -3.90812 1.76605 1.93171
lowerneck -20.1913 5.49359 8.19069
upperneck 40.5871 7.53566 -6.70942
head 19.8787 3.15467 -3.13323
rclavicle 1.55549e-014 -3.18055e-014
rhumerus -38.9918 -9.961 -57.9024
rradius 38.558
rwrist -8.78084
rhand -15.3254 -17.8583
rfingers 7.12502
rthumb 10.8509 -47.558
lclavicle 1.55549e-014 -3.18055e-014
lhumerus -46.7238 -7.77267 89.88
lradius 33.9205
lwrist 41.0916
lhand -13.1556 1.26486
lfingers 7.12502
lthumb 12.9432 30.8434
rfemur -48.9501 7.51941 22.7496
rtibia 57.9798
rfoot -26.6729 -12.1203
rtoes 2.19741
lfemur -67.1825 1.10917 -22.6589
ltibia 73.0513
lfoot -0.0792814 8.84224
ltoes -33.0584
495
root 8.29045 19.3729 5.74926 -337.805 -45.4708 0.791838
lowerback -7.52913 3.77788 9.63564
upperback -8.00255 4.48865 6.83694
thorax -4.05607 1.83798 2.00872
lowerneck -20.1474 5.57833 8.30257
upperneck 40.4605 7.76252 -7.03914
head 19.8496 3.21385 -3.26259
rclavicle 2.15184e-014 3.18055e-015
rhumerus -38.8681 -9.88316 -57.7505
rradius 38.9468
rwrist -8.99506
rhand -15.3548 -17.9815
rfingers 7.12502
rthumb 10.8225 -47.6827
lclavicle 2.15184e-014 3.18055e-015
lhumerus -47.1447 -8.01988 90.0945
lradius 33.9759
lwrist 41.1081
lhand -13.1282 1.24252
lfingers 7.12502
lthumb 12.9696 30.8194
rfemur -49.5389 7.88271 22.3157
rtibia 58.7805
rfoot -26.9983 -11.7908
rtoes 2.17775
lfemur -67.389 1.0337 -22.0952
ltibia 72.5605
lfoot -0.0242149 8.82261
ltoes -33.0274
496
root 8.30215 19.3324 5.78351 -337.818 -46.3825 0.938906
lowerback -7.26685 3.87224 9.719
upperback -7.99367 4.64457 6.94749
thorax -4.19327 1.90655 2.07364
lowerneck -20.1034 5.66806 8.41457
upperneck 40.3426 7.9916 -7.35754
head 19.8278 3.27569 -3.38602
rclavicle -9.74045e-015 9.54166e-015
rhumerus -38.7243 -9.7908 -57.6136
rradius 39.3211
rwrist -9.17564
rhand -15.3438 -18.0732
rfingers 7.12502
rthumb 10.8331 -47.7738
lclavicle -9.74045e-015 9.54166e-015
lhumerus -47.5531 -8.24636 90.287
lradius 34.0053
lwrist 41.1413
lhand -13.1346 1.23431
lfingers 7.12502
lthumb 12.9634 30.8116
rfemur -50.1534 8.2414 21.8921
rtibia 59.5853
rfoot -27.3267 -11.452
rtoes 2.15784
lfemur -67.5693 0.940747 -21.4742
ltibia 72.0166
lfoot 0.0953845 8.76923
ltoes -32.9982
497
root 8.31346 19.2905 5.81909 -337.807 -47.2906 1.07588
lowerback -7.02503 3.9626 9.81831
upperback -7.98361 4.79148 7.05323
thorax -4.31707 1.96985 2.12497
lowerneck -20.064 5.76501 8.53575
upperneck 40.2362 8.22287 -7.66536
head 19.8171 3.34142 -3.50571
rclavicle 3.26007e-014 -9.54166e-015
rhumerus -38.5597 -9.69035 -57.4924
rradius 39.6776
rwrist -9.31578
rhand -15.2952 -18.1378
rfingers 7.12502
rthumb 10.8801 -47.8359
lclavicle 3.26007e-014 -9.54166e-015
lhumerus -47.9461 -8.45485 90.4531
lradius 34.0077
lwrist 41.1894
lhand -13.1647 1.23661
lfingers 7.12502
lthumb 12.9345 30.8157
rfemur -50.7944 8.58548 21.4764
rtibia 60.3973
rfoot -27.6617 -11.1015
rtoes 2.14823
lfemur -67.7217 0.825709 -20.8045
ltibia 71.4179
lfoot 0.285335 8.67449
ltoes -32.9782
